<?xml version="1.0" standalone="no"?><!DOCTYPE svg PUBLIC "-//W3C//DTD SVG 1.1//EN" "http://www.w3.org/Graphics/SVG/1.1/DTD/svg11.dtd"><svg t="1712720959892" class="icon" viewBox="0 0 1024 1024" version="1.1" xmlns="http://www.w3.org/2000/svg" p-id="5521" xmlns:xlink="http://www.w3.org/1999/xlink" width="32" height="32"><path d="M874.666667 149.333333H320a21.333333 21.333333 0 0 0-21.333333 21.333334v640a105.621333 105.621333 0 0 1-21.866667 64H789.333333a106.773333 106.773333 0 0 0 106.666667-106.666667V170.666667a21.333333 21.333333 0 0 0-21.333333-21.333334z m-128 554.666667H448a21.333333 21.333333 0 0 1 0-42.666667h298.666667a21.333333 21.333333 0 0 1 0 42.666667z m0-128H448a21.333333 21.333333 0 0 1 0-42.666667h298.666667a21.333333 21.333333 0 0 1 0 42.666667z m0-128H448a21.333333 21.333333 0 0 1 0-42.666667h298.666667a21.333333 21.333333 0 0 1 0 42.666667z m0-128H448a21.333333 21.333333 0 0 1 0-42.666667h298.666667a21.333333 21.333333 0 0 1 0 42.666667zM234.666667 234.666667H149.333333a21.333333 21.333333 0 0 0-21.333333 21.333333v554.666667a64 64 0 0 0 128 0V256a21.333333 21.333333 0 0 0-21.333333-21.333333z" fill="#606c5d" p-id="5522"></path></svg>